<svg width="45" height="48" viewBox="0 0 45 48" fill="none" xmlns="http://www.w3.org/2000/svg">
<g filter="url(#filter0_d_66_1056)">
<path d="M22.498 35.9881C32.393 35.9881 40.4145 28.0605 40.4145 18.2814C40.4145 8.50226 32.393 0.574707 22.498 0.574707C12.603 0.574707 4.58154 8.50226 4.58154 18.2814C4.58154 28.0605 12.603 35.9881 22.498 35.9881Z" fill="white"/>
<path d="M22.4981 36.5629C12.2972 36.5629 4 28.3629 4 18.2814C4 8.20002 12.2972 0 22.4981 0C32.6989 0 40.9961 8.20002 40.9961 18.2814C40.9961 28.3629 32.6989 36.5629 22.4981 36.5629ZM22.4981 1.14954C12.9408 1.14954 5.16316 8.8361 5.16316 18.2814C5.16316 27.7268 12.9408 35.4134 22.4981 35.4134C32.0553 35.4134 39.833 27.7268 39.833 18.2814C39.833 8.8361 32.0592 1.14954 22.4981 1.14954ZM22.4981 34.647C13.3673 34.647 5.93859 27.3053 5.93859 18.2814C5.93859 9.25759 13.3673 1.91589 22.4981 1.91589C31.6288 1.91589 39.0575 9.25759 39.0575 18.2814C39.0575 27.3053 31.6288 34.647 22.4981 34.647ZM22.4981 3.06543C14.007 3.06543 7.10175 9.88984 7.10175 18.2814C7.10175 26.6731 14.0109 33.4975 22.4981 33.4975C30.9852 33.4975 37.8944 26.6692 37.8944 18.2814C37.8944 9.89367 30.9891 3.06543 22.4981 3.06543Z" fill="#1FBFE5"/>
<path d="M22.498 2.4906C31.307 2.4906 38.4759 9.57557 38.4759 18.2814C38.4759 26.9872 31.307 34.0722 22.498 34.0722C13.6891 34.0722 6.52014 26.991 6.52014 18.2814C6.52014 9.57174 13.6891 2.4906 22.498 2.4906ZM22.498 0.574707C12.6034 0.574707 4.58154 8.50267 4.58154 18.2814C4.58154 28.0601 12.6034 35.9881 22.498 35.9881C32.3926 35.9881 40.4145 28.0601 40.4145 18.2814C40.4145 8.50267 32.3965 0.574707 22.498 0.574707Z" fill="url(#paint0_radial_66_1056)"/>
<path d="M22.502 27.7305C17.3686 27.7496 12.9835 23.6994 12.9292 18.3962C12.8749 12.9168 17.3298 8.95854 22.25 8.83976C27.4997 8.71331 32.0282 12.821 32.067 18.2276C32.1058 23.4887 27.8137 27.7228 22.502 27.7343V27.7305ZM30.3843 18.2928C30.3843 13.9858 26.8522 10.4874 22.502 10.4836C18.1789 10.4836 14.6429 13.9782 14.6003 18.2161C14.5576 22.366 17.954 26.0675 22.4903 26.0866C26.8328 26.1058 30.3843 22.5882 30.3843 18.2928Z" fill="#1BC1C1"/>
<path d="M21.3193 19.8599C21.3193 18.6453 21.3193 17.4306 21.3193 16.2159C21.3193 15.53 21.8195 14.9936 22.4825 15.0051C23.2501 15.0166 23.6883 15.6411 23.6805 16.2236C23.6573 18.6644 23.6728 21.1053 23.6689 23.5461C23.6689 24.255 23.192 24.7378 22.5057 24.7416C21.804 24.7455 21.3193 24.2588 21.3154 23.5384C21.3154 22.3123 21.3154 21.0861 21.3154 19.8638L21.3193 19.8599Z" fill="#1BC1C1"/>
<path d="M22.4708 14.197C21.7962 14.1932 21.296 13.6759 21.3038 12.9938C21.3116 12.3194 21.8272 11.8213 22.5096 11.8213C23.1881 11.8213 23.696 12.3386 23.6921 13.013C23.6921 13.7065 23.1804 14.2008 22.4708 14.197Z" fill="#1BC1C1"/>
<path d="M16.686 39.9962C15.9649 39.9962 15.4259 39.479 15.4259 38.7931V34.9728H14.9103C14.9452 35.0877 14.9645 35.2065 14.9645 35.3368C14.9645 35.5322 14.918 35.7238 14.8288 35.8886C14.9801 36.0993 15.0654 36.3714 15.0654 36.6818V38.4405C15.0654 39.2184 14.5381 39.7434 13.7587 39.7434H11.5022C10.719 39.7434 10.1956 39.2222 10.1956 38.452V36.6856C10.1956 36.379 10.2809 36.1108 10.4282 35.9001C10.3391 35.7353 10.2887 35.5437 10.2887 35.3406C10.2887 35.1146 10.3507 34.9076 10.4554 34.7314C10.3546 34.5589 10.2964 34.3559 10.2964 34.1374C10.2964 34.011 10.3158 33.8922 10.3507 33.7811C10.1181 33.5703 9.97461 33.2676 9.97461 32.9189C9.97461 32.6392 10.0715 32.371 10.246 32.1641C10.2732 32.1296 10.3042 32.0989 10.3391 32.0683C10.308 31.961 10.2887 31.8422 10.2887 31.7234C10.2887 31.0759 10.7888 30.5701 11.4286 30.5701H13.8247C14.4644 30.5701 14.9645 31.0759 14.9645 31.7234C14.9645 31.8422 14.949 31.961 14.9141 32.0721C15.0576 32.2062 15.1662 32.3787 15.2282 32.5779H15.4259V31.4859C15.4259 30.8115 15.9649 30.3057 16.6783 30.3057C17.3917 30.3057 17.9306 30.8153 17.9306 31.4859V32.5779H18.5858C19.2643 32.5779 19.7916 33.1029 19.7916 33.7696C19.7916 34.4363 19.2605 34.9804 18.5858 34.9804H17.9306V38.8007C17.9306 39.4751 17.3839 40.0039 16.686 40.0039V39.9962Z" fill="#1FBFE5"/>
<path d="M32.2452 39.9998C31.5745 39.9998 31.0472 39.4978 31.0472 38.8579V38.7621H29.4808C29.0815 39.356 28.4495 39.7469 27.5887 39.9308C27.4996 39.95 27.4026 39.9653 27.2863 39.9653C26.6001 39.9653 26.0417 39.425 26.0417 38.7621C26.0417 38.6931 26.0495 38.628 26.0611 38.5629C25.7703 38.3636 25.5842 38.0302 25.5842 37.6432C25.5842 37.3712 25.6812 37.1106 25.8518 36.9075C25.9913 36.7466 26.1697 36.6316 26.3752 36.5703C26.3558 36.463 26.3442 36.3519 26.3442 36.2331V33.8076C25.9022 33.6352 25.5842 33.2022 25.5842 32.7156C25.5842 32.5086 25.6463 32.2021 25.9293 31.9185L26.0146 31.8419C26.2782 31.6082 26.6388 31.2863 26.9606 30.8073C27.1622 30.4893 27.5345 30.2977 27.9648 30.2977C28.3952 30.2977 28.7907 30.497 28.9962 30.8073H30.2213C30.326 30.8073 30.4268 30.8227 30.5199 30.8456C30.7099 30.5084 31.1053 30.29 31.5706 30.29C32.0359 30.29 32.3964 30.4931 32.6019 30.8073H34.0404C34.6685 30.8073 35.1609 31.294 35.1609 31.9147C35.1609 32.3707 34.8972 32.75 34.5095 32.9225C34.5832 33.1026 34.6258 33.3133 34.6258 33.5432V36.237C34.6258 36.3596 34.6142 36.4745 34.5909 36.5857C35.0407 36.7274 35.3547 37.1451 35.3547 37.6471C35.3547 38.2716 34.8662 38.7621 34.242 38.7621H33.4394V38.8579C33.4394 39.4978 32.9121 39.9998 32.2414 39.9998H32.2452Z" fill="#1FBFE5"/>
<path d="M11.1147 33.3022C10.6301 33.3022 10.6301 32.532 11.1147 32.532H14.135C14.6197 32.532 14.6197 33.3022 14.135 33.3022H11.1147ZM13.7589 38.9771H11.5024C11.1457 38.9771 10.9713 38.8047 10.9713 38.4521V36.6857C10.9713 36.3332 11.1457 36.1607 11.5024 36.1607H13.7589C14.1156 36.1607 14.2901 36.3332 14.2901 36.6857V38.4445C14.2901 38.797 14.1156 38.9809 13.7589 38.9809V38.9771ZM11.4288 32.1029C10.9441 32.1029 10.9441 31.3327 11.4288 31.3327H13.8249C14.3095 31.3327 14.3095 32.1029 13.8249 32.1029H11.4288ZM11.4288 35.7239C10.9441 35.7239 10.9441 34.9537 11.4288 34.9537H13.8249C14.3095 34.9537 14.3095 35.7239 13.8249 35.7239H11.4288ZM11.4365 34.5169C10.9519 34.5169 10.9519 33.7467 11.4365 33.7467H13.821C14.3056 33.7467 14.3056 34.5169 13.821 34.5169H11.4365ZM13.4294 37.0382C13.4294 36.9654 13.3945 36.9309 13.3208 36.9309H11.9444C11.8708 36.9309 11.8359 36.9654 11.8359 37.0382V38.0804C11.8359 38.1533 11.8708 38.1877 11.9444 38.1877H13.3208C13.3945 38.1877 13.4294 38.1533 13.4294 38.0804V37.0382ZM18.586 34.2065H17.1554V38.7932C17.1554 39.0844 16.915 39.23 16.6862 39.23C16.4381 39.23 16.2016 39.0844 16.2016 38.7932V34.2065H14.798C14.4956 34.2065 14.3483 33.9996 14.3483 33.7812C14.3483 33.5628 14.5034 33.3367 14.798 33.3367H16.2016V31.4783C16.2016 30.9265 17.1554 30.9265 17.1554 31.4783V33.3367H18.586C18.8691 33.3367 19.0164 33.5551 19.0164 33.762C19.0164 33.9881 18.8691 34.2065 18.586 34.2065Z" fill="white"/>
<path d="M29.5547 32.2561C29.6012 32.3289 29.6206 32.4017 29.6206 32.4746C29.6206 32.7006 29.3996 32.8539 29.1902 32.8539C29.0545 32.8539 28.9343 32.7888 28.8607 32.6546C28.787 32.5282 28.7056 32.3903 28.6125 32.2561H27.8332C27.6316 32.4937 27.2361 32.8462 27.0345 33.0263C26.9531 33.0991 26.8678 33.126 26.7786 33.126C26.5693 33.126 26.3676 32.9267 26.3676 32.716C26.3676 32.624 26.4025 32.5435 26.4878 32.4631C26.7631 32.2178 27.2206 31.827 27.6239 31.2216C27.6898 31.1143 27.8332 31.0683 27.9728 31.0683C28.1822 31.0683 28.3954 31.1679 28.3954 31.3672C28.3954 31.4208 28.376 31.4936 28.3217 31.5741H30.2293C30.6868 31.5741 30.6868 32.2523 30.2293 32.2523H29.5586L29.5547 32.2561ZM32.6642 38V38.8621C32.6642 39.3603 31.819 39.3603 31.819 38.8621V38H29.0119C28.7831 38.5709 28.314 38.9962 27.4261 39.1878C27.3796 39.1955 27.3331 39.207 27.2904 39.207C26.9958 39.207 26.8213 38.9809 26.8213 38.7702C26.8213 38.6246 26.9143 38.4905 27.1043 38.4521C27.5541 38.3717 27.9961 38.2261 28.1318 38H26.7011C26.2513 38 26.2513 37.3026 26.7011 37.3026H28.3605C28.3799 37.1838 28.3877 37.0114 28.3877 36.8926H27.7906C27.3486 36.8926 27.1198 36.6742 27.1198 36.2412V33.5475C27.1198 33.1106 27.3408 32.896 27.7789 32.896H30.3767C30.3107 32.8309 30.2759 32.7428 30.2759 32.6585C30.2759 32.5857 30.303 32.5052 30.3767 32.4324C30.5977 32.214 30.8923 31.8423 31.1754 31.2714C31.2413 31.1258 31.4041 31.0645 31.5708 31.0645C31.7802 31.0645 31.9934 31.1717 31.9934 31.3825C31.9934 31.4476 31.9741 31.5089 31.9392 31.5817H34.0406C34.4981 31.5817 34.4981 32.26 34.0406 32.26H33.207C33.207 32.26 33.2613 32.3328 33.2729 32.3519C33.3001 32.4056 33.3078 32.4516 33.3078 32.5052C33.3078 32.7121 33.0984 32.8769 32.8774 32.8769C32.7495 32.8769 32.6215 32.8117 32.5479 32.67C32.482 32.5435 32.3812 32.3903 32.292 32.26H31.5592C31.3925 32.5052 31.2103 32.7389 31.0746 32.896H33.1954C33.6374 32.896 33.8545 33.1145 33.8545 33.5475V36.2412C33.8545 36.678 33.6335 36.8926 33.1954 36.8926H32.672V37.3026H34.25C34.6997 37.3026 34.6997 38 34.25 38H32.672H32.6642ZM33.0054 33.762C33.0054 33.6701 32.9589 33.6279 32.8658 33.6279H28.1124C28.0193 33.6279 27.9728 33.6739 27.9728 33.762V34.0686H33.0015V33.762H33.0054ZM33.0054 34.6702H27.9767V35.0955H33.0054V34.6702ZM33.0054 35.6933H27.9767V36.019C27.9767 36.1109 28.0232 36.1531 28.1163 36.1531H32.8697C32.9627 36.1531 33.0093 36.1071 33.0093 36.019V35.6933H33.0054ZM31.8229 36.8926H29.2174C29.2174 37.019 29.2096 37.1838 29.1902 37.3026H31.8229V36.8926Z" fill="white"/>
</g>
<defs>
<filter id="filter0_d_66_1056" x="0" y="0" width="44.9961" height="48.0039" filterUnits="userSpaceOnUse" color-interpolation-filters="sRGB">
<feFlood flood-opacity="0" result="BackgroundImageFix"/>
<feColorMatrix in="SourceAlpha" type="matrix" values="0 0 0 0 0 0 0 0 0 0 0 0 0 0 0 0 0 0 127 0" result="hardAlpha"/>
<feOffset dy="4"/>
<feGaussianBlur stdDeviation="2"/>
<feComposite in2="hardAlpha" operator="out"/>
<feColorMatrix type="matrix" values="0 0 0 0 0 0 0 0 0 0 0 0 0 0 0 0 0 0 0.25 0"/>
<feBlend mode="normal" in2="BackgroundImageFix" result="effect1_dropShadow_66_1056"/>
<feBlend mode="normal" in="SourceGraphic" in2="effect1_dropShadow_66_1056" result="shape"/>
</filter>
<radialGradient id="paint0_radial_66_1056" cx="0" cy="0" r="1" gradientUnits="userSpaceOnUse" gradientTransform="translate(8.99994 7.5) rotate(38.5302) scale(34.5145 34.1103)">
<stop stop-color="white"/>
<stop offset="1" stop-color="#33F5FF"/>
</radialGradient>
</defs>
</svg>
